<mxfile host="app.diagrams.net" agent="Mozilla/5.0 (Macintosh; Intel Mac OS X 10_15_7) AppleWebKit/537.36 (KHTML, like Gecko) Chrome/135.0.0.0 Safari/537.36" version="26.2.14">
  <diagram name="第 1 页" id="oW_HWMbuLzEQUuHJXe-u">
    <mxGraphModel grid="1" page="1" gridSize="10" guides="1" tooltips="1" connect="1" arrows="1" fold="1" pageScale="1" pageWidth="50000" pageHeight="4000" math="0" shadow="0">
      <root>
        <mxCell id="0" />
        <mxCell id="1" parent="0" />
        <mxCell id="PA6u_Vdks4HZoJfBhmhb-9" value="" style="rounded=0;whiteSpace=wrap;html=1;" vertex="1" parent="1">
          <mxGeometry x="1900" y="290" width="2080" height="1900" as="geometry" />
        </mxCell>
        <mxCell id="PA6u_Vdks4HZoJfBhmhb-12" value="" style="group" vertex="1" connectable="0" parent="1">
          <mxGeometry x="1870" y="250" width="190" height="130" as="geometry" />
        </mxCell>
        <mxCell id="PA6u_Vdks4HZoJfBhmhb-10" value="" style="aspect=fixed;sketch=0;html=1;dashed=0;whitespace=wrap;fillColor=#2875E2;strokeColor=#ffffff;points=[[0.005,0.63,0],[0.1,0.2,0],[0.9,0.2,0],[0.5,0,0],[0.995,0.63,0],[0.72,0.99,0],[0.5,1,0],[0.28,0.99,0]];shape=mxgraph.kubernetes.icon2;kubernetesLabel=1;prIcon=ns" vertex="1" parent="PA6u_Vdks4HZoJfBhmhb-12">
          <mxGeometry x="55.416666666666664" width="79.16666666666666" height="76" as="geometry" />
        </mxCell>
        <mxCell id="PA6u_Vdks4HZoJfBhmhb-11" value="ntub-secumanage" style="text;html=1;align=center;verticalAlign=middle;resizable=0;points=[];autosize=1;strokeColor=none;fillColor=none;" vertex="1" parent="PA6u_Vdks4HZoJfBhmhb-12">
          <mxGeometry x="35" y="76" width="120" height="30" as="geometry" />
        </mxCell>
        <mxCell id="PA6u_Vdks4HZoJfBhmhb-17" value="" style="group" vertex="1" connectable="0" parent="1">
          <mxGeometry x="2497.5" y="410" width="470" height="240" as="geometry" />
        </mxCell>
        <mxCell id="PA6u_Vdks4HZoJfBhmhb-22" value="" style="whiteSpace=wrap;html=1;" vertex="1" parent="PA6u_Vdks4HZoJfBhmhb-17">
          <mxGeometry x="-331.7647058823529" y="50" width="801.7647058823529" height="130" as="geometry" />
        </mxCell>
        <mxCell id="PA6u_Vdks4HZoJfBhmhb-19" value="&lt;span style=&quot;background-color: rgb(230, 230, 230);&quot;&gt;https://ntub-secumanage.walle4561.com/&lt;/span&gt;" style="text;html=1;align=center;verticalAlign=middle;resizable=0;points=[];autosize=1;strokeColor=none;fillColor=none;" vertex="1" parent="PA6u_Vdks4HZoJfBhmhb-17">
          <mxGeometry x="-257.2549019607843" y="120" width="240" height="30" as="geometry" />
        </mxCell>
        <mxCell id="PA6u_Vdks4HZoJfBhmhb-18" value="&lt;span style=&quot;background-color: rgb(230, 230, 230);&quot;&gt;https://ntub-secumanage.walle4561.com/api&lt;/span&gt;" style="text;html=1;align=center;verticalAlign=middle;resizable=0;points=[];autosize=1;strokeColor=none;fillColor=none;" vertex="1" parent="PA6u_Vdks4HZoJfBhmhb-17">
          <mxGeometry x="144.01960784313724" y="120" width="260" height="30" as="geometry" />
        </mxCell>
        <mxCell id="OBrosOqHSB_QmreXcXmK-2" value="" style="group" vertex="1" connectable="0" parent="PA6u_Vdks4HZoJfBhmhb-17">
          <mxGeometry x="-39.710000000000036" width="190" height="103.73000000000002" as="geometry" />
        </mxCell>
        <mxCell id="PA6u_Vdks4HZoJfBhmhb-15" value="" style="aspect=fixed;sketch=0;html=1;dashed=0;whitespace=wrap;fillColor=#2875E2;strokeColor=#ffffff;points=[[0.005,0.63,0],[0.1,0.2,0],[0.9,0.2,0],[0.5,0,0],[0.995,0.63,0],[0.72,0.99,0],[0.5,1,0],[0.28,0.99,0]];shape=mxgraph.kubernetes.icon2;kubernetesLabel=1;prIcon=ing" vertex="1" parent="OBrosOqHSB_QmreXcXmK-2">
          <mxGeometry x="56.60235294117652" width="76.79431372549018" height="73.72549019607843" as="geometry" />
        </mxCell>
        <mxCell id="OBrosOqHSB_QmreXcXmK-1" value="ntub-secumanage-main-ingress" style="text;html=1;align=center;verticalAlign=middle;resizable=0;points=[];autosize=1;strokeColor=none;fillColor=none;" vertex="1" parent="OBrosOqHSB_QmreXcXmK-2">
          <mxGeometry y="73.73000000000002" width="190" height="30" as="geometry" />
        </mxCell>
        <mxCell id="PA6u_Vdks4HZoJfBhmhb-24" style="edgeStyle=orthogonalEdgeStyle;rounded=0;orthogonalLoop=1;jettySize=auto;html=1;entryX=0.5;entryY=0;entryDx=0;entryDy=0;entryPerimeter=0;" edge="1" parent="1" source="PA6u_Vdks4HZoJfBhmhb-19" target="PA6u_Vdks4HZoJfBhmhb-23">
          <mxGeometry relative="1" as="geometry" />
        </mxCell>
        <mxCell id="PA6u_Vdks4HZoJfBhmhb-27" value="" style="group" vertex="1" connectable="0" parent="1">
          <mxGeometry x="2240.25" y="620" width="250" height="120" as="geometry" />
        </mxCell>
        <mxCell id="PA6u_Vdks4HZoJfBhmhb-23" value="" style="aspect=fixed;sketch=0;html=1;dashed=0;whitespace=wrap;fillColor=#2875E2;strokeColor=#ffffff;points=[[0.005,0.63,0],[0.1,0.2,0],[0.9,0.2,0],[0.5,0,0],[0.995,0.63,0],[0.72,0.99,0],[0.5,1,0],[0.28,0.99,0]];shape=mxgraph.kubernetes.icon2;prIcon=svc" vertex="1" parent="PA6u_Vdks4HZoJfBhmhb-27">
          <mxGeometry x="83.53999999999996" y="18" width="72.92" height="70" as="geometry" />
        </mxCell>
        <mxCell id="PA6u_Vdks4HZoJfBhmhb-26" value="&lt;div style=&quot;background-color: rgb(255, 255, 254); font-family: Menlo, Monaco, &amp;quot;Courier New&amp;quot;, monospace; line-height: 18px; white-space-collapse: preserve;&quot;&gt;&lt;span style=&quot;color: #0451a5;&quot;&gt;ntub-secumanage-frontend-service&lt;/span&gt;&lt;/div&gt;" style="text;html=1;align=center;verticalAlign=middle;resizable=0;points=[];autosize=1;strokeColor=none;fillColor=none;" vertex="1" parent="PA6u_Vdks4HZoJfBhmhb-27">
          <mxGeometry y="84" width="250" height="30" as="geometry" />
        </mxCell>
        <mxCell id="PA6u_Vdks4HZoJfBhmhb-32" style="edgeStyle=orthogonalEdgeStyle;rounded=0;orthogonalLoop=1;jettySize=auto;html=1;entryX=0.5;entryY=0;entryDx=0;entryDy=0;entryPerimeter=0;" edge="1" parent="1" source="PA6u_Vdks4HZoJfBhmhb-26" target="PA6u_Vdks4HZoJfBhmhb-25">
          <mxGeometry relative="1" as="geometry" />
        </mxCell>
        <mxCell id="PA6u_Vdks4HZoJfBhmhb-33" style="edgeStyle=orthogonalEdgeStyle;rounded=0;orthogonalLoop=1;jettySize=auto;html=1;entryX=0.5;entryY=0;entryDx=0;entryDy=0;entryPerimeter=0;" edge="1" parent="1" source="PA6u_Vdks4HZoJfBhmhb-26" target="PA6u_Vdks4HZoJfBhmhb-29">
          <mxGeometry relative="1" as="geometry" />
        </mxCell>
        <mxCell id="PA6u_Vdks4HZoJfBhmhb-35" value="" style="group" vertex="1" connectable="0" parent="1">
          <mxGeometry x="2660.25" y="620" width="250" height="252" as="geometry" />
        </mxCell>
        <mxCell id="PA6u_Vdks4HZoJfBhmhb-34" value="" style="aspect=fixed;sketch=0;html=1;dashed=0;whitespace=wrap;fillColor=#2875E2;strokeColor=#ffffff;points=[[0.005,0.63,0],[0.1,0.2,0],[0.9,0.2,0],[0.5,0,0],[0.995,0.63,0],[0.72,0.99,0],[0.5,1,0],[0.28,0.99,0]];shape=mxgraph.kubernetes.icon2;kubernetesLabel=1;prIcon=pod" vertex="1" parent="PA6u_Vdks4HZoJfBhmhb-35">
          <mxGeometry x="-12.75" y="184" width="70.83" height="68" as="geometry" />
        </mxCell>
        <mxCell id="PA6u_Vdks4HZoJfBhmhb-36" value="" style="aspect=fixed;sketch=0;html=1;dashed=0;whitespace=wrap;fillColor=#2875E2;strokeColor=#ffffff;points=[[0.005,0.63,0],[0.1,0.2,0],[0.9,0.2,0],[0.5,0,0],[0.995,0.63,0],[0.72,0.99,0],[0.5,1,0],[0.28,0.99,0]];shape=mxgraph.kubernetes.icon2;prIcon=svc" vertex="1" parent="PA6u_Vdks4HZoJfBhmhb-35">
          <mxGeometry x="73.53999999999996" y="20" width="72.92" height="70" as="geometry" />
        </mxCell>
        <mxCell id="PA6u_Vdks4HZoJfBhmhb-37" value="&lt;div style=&quot;background-color: rgb(255, 255, 254); line-height: 18px;&quot;&gt;&lt;font face=&quot;Menlo, Monaco, Courier New, monospace&quot; color=&quot;#0451a5&quot;&gt;&lt;span style=&quot;white-space-collapse: preserve;&quot;&gt;ntub-secumanage-backend-service&lt;/span&gt;&lt;/font&gt;&lt;br&gt;&lt;/div&gt;" style="text;html=1;align=center;verticalAlign=middle;resizable=0;points=[];autosize=1;strokeColor=none;fillColor=none;" vertex="1" parent="PA6u_Vdks4HZoJfBhmhb-35">
          <mxGeometry x="-15" y="90" width="250" height="30" as="geometry" />
        </mxCell>
        <mxCell id="PA6u_Vdks4HZoJfBhmhb-38" value="" style="aspect=fixed;sketch=0;html=1;dashed=0;whitespace=wrap;fillColor=#2875E2;strokeColor=#ffffff;points=[[0.005,0.63,0],[0.1,0.2,0],[0.9,0.2,0],[0.5,0,0],[0.995,0.63,0],[0.72,0.99,0],[0.5,1,0],[0.28,0.99,0]];shape=mxgraph.kubernetes.icon2;kubernetesLabel=1;prIcon=pod" vertex="1" parent="PA6u_Vdks4HZoJfBhmhb-35">
          <mxGeometry x="167.25000000000003" y="184" width="70.83" height="68" as="geometry" />
        </mxCell>
        <mxCell id="PA6u_Vdks4HZoJfBhmhb-39" style="edgeStyle=orthogonalEdgeStyle;rounded=0;orthogonalLoop=1;jettySize=auto;html=1;entryX=0.5;entryY=0;entryDx=0;entryDy=0;entryPerimeter=0;" edge="1" parent="PA6u_Vdks4HZoJfBhmhb-35" source="PA6u_Vdks4HZoJfBhmhb-37" target="PA6u_Vdks4HZoJfBhmhb-34">
          <mxGeometry relative="1" as="geometry" />
        </mxCell>
        <mxCell id="PA6u_Vdks4HZoJfBhmhb-40" style="edgeStyle=orthogonalEdgeStyle;rounded=0;orthogonalLoop=1;jettySize=auto;html=1;entryX=0.5;entryY=0;entryDx=0;entryDy=0;entryPerimeter=0;" edge="1" parent="PA6u_Vdks4HZoJfBhmhb-35" source="PA6u_Vdks4HZoJfBhmhb-37" target="PA6u_Vdks4HZoJfBhmhb-38">
          <mxGeometry relative="1" as="geometry" />
        </mxCell>
        <mxCell id="PA6u_Vdks4HZoJfBhmhb-41" style="rounded=0;orthogonalLoop=1;jettySize=auto;html=1;" edge="1" parent="1" source="PA6u_Vdks4HZoJfBhmhb-18" target="PA6u_Vdks4HZoJfBhmhb-36">
          <mxGeometry relative="1" as="geometry" />
        </mxCell>
        <mxCell id="PA6u_Vdks4HZoJfBhmhb-42" value="" style="group" vertex="1" connectable="0" parent="1">
          <mxGeometry x="2677.5" y="1600" width="220" height="438" as="geometry" />
        </mxCell>
        <mxCell id="PA6u_Vdks4HZoJfBhmhb-43" value="" style="whiteSpace=wrap;html=1;" vertex="1" parent="PA6u_Vdks4HZoJfBhmhb-42">
          <mxGeometry x="-430" y="50" width="650" height="130" as="geometry" />
        </mxCell>
        <mxCell id="PA6u_Vdks4HZoJfBhmhb-46" value="&lt;span style=&quot;background-color: rgb(230, 230, 230);&quot;&gt;https://ntub-secumanage.walle4561.com/minio-console&lt;/span&gt;" style="text;html=1;align=center;verticalAlign=middle;resizable=0;points=[];autosize=1;strokeColor=none;fillColor=none;" vertex="1" parent="PA6u_Vdks4HZoJfBhmhb-42">
          <mxGeometry x="-127.65059240717567" y="120" width="320" height="30" as="geometry" />
        </mxCell>
        <mxCell id="PA6u_Vdks4HZoJfBhmhb-100" value="&lt;span style=&quot;background-color: rgb(230, 230, 230);&quot;&gt;https://ntub-secumanage.walle4561.com/minio-api&lt;/span&gt;" style="text;html=1;align=center;verticalAlign=middle;resizable=0;points=[];autosize=1;strokeColor=none;fillColor=none;" vertex="1" parent="PA6u_Vdks4HZoJfBhmhb-42">
          <mxGeometry x="-415.00059240717565" y="120" width="290" height="30" as="geometry" />
        </mxCell>
        <mxCell id="PA6u_Vdks4HZoJfBhmhb-76" style="edgeStyle=orthogonalEdgeStyle;rounded=0;orthogonalLoop=1;jettySize=auto;html=1;entryX=0.5;entryY=0;entryDx=0;entryDy=0;entryPerimeter=0;" edge="1" parent="1" source="PA6u_Vdks4HZoJfBhmhb-75" target="PA6u_Vdks4HZoJfBhmhb-73">
          <mxGeometry relative="1" as="geometry" />
        </mxCell>
        <mxCell id="PA6u_Vdks4HZoJfBhmhb-99" value="" style="whiteSpace=wrap;html=1;" vertex="1" parent="1">
          <mxGeometry x="2400" y="1040" width="340" height="120" as="geometry" />
        </mxCell>
        <mxCell id="PA6u_Vdks4HZoJfBhmhb-86" value="&lt;span style=&quot;background-color: rgb(230, 230, 230);&quot;&gt;https://ntub-secumanage.walle4561.com/rabbitmq&lt;/span&gt;" style="text;html=1;align=center;verticalAlign=middle;resizable=0;points=[];autosize=1;strokeColor=none;fillColor=none;" vertex="1" parent="1">
          <mxGeometry x="2419.9996078431373" y="1100" width="290" height="30" as="geometry" />
        </mxCell>
        <mxCell id="PA6u_Vdks4HZoJfBhmhb-87" value="" style="group" vertex="1" connectable="0" parent="1">
          <mxGeometry x="2513.73" y="1190" width="270" height="252" as="geometry" />
        </mxCell>
        <mxCell id="PA6u_Vdks4HZoJfBhmhb-88" value="" style="aspect=fixed;sketch=0;html=1;dashed=0;whitespace=wrap;fillColor=#2875E2;strokeColor=#ffffff;points=[[0.005,0.63,0],[0.1,0.2,0],[0.9,0.2,0],[0.5,0,0],[0.995,0.63,0],[0.72,0.99,0],[0.5,1,0],[0.28,0.99,0]];shape=mxgraph.kubernetes.icon2;kubernetesLabel=1;prIcon=pod" vertex="1" parent="PA6u_Vdks4HZoJfBhmhb-87">
          <mxGeometry x="16.27" y="184" width="70.83" height="68" as="geometry" />
        </mxCell>
        <mxCell id="PA6u_Vdks4HZoJfBhmhb-89" value="" style="aspect=fixed;sketch=0;html=1;dashed=0;whitespace=wrap;fillColor=#2875E2;strokeColor=#ffffff;points=[[0.005,0.63,0],[0.1,0.2,0],[0.9,0.2,0],[0.5,0,0],[0.995,0.63,0],[0.72,0.99,0],[0.5,1,0],[0.28,0.99,0]];shape=mxgraph.kubernetes.icon2;prIcon=svc" vertex="1" parent="PA6u_Vdks4HZoJfBhmhb-87">
          <mxGeometry x="10.219999999999967" y="30" width="72.92" height="70" as="geometry" />
        </mxCell>
        <mxCell id="PA6u_Vdks4HZoJfBhmhb-90" value="&lt;div style=&quot;background-color: rgb(255, 255, 254); line-height: 18px;&quot;&gt;&lt;font face=&quot;Menlo, Monaco, Courier New, monospace&quot; color=&quot;#0451a5&quot;&gt;&lt;span style=&quot;white-space-collapse: preserve;&quot;&gt;ntub-secumanage-rabbitmq-server-service&lt;/span&gt;&lt;/font&gt;&lt;br&gt;&lt;/div&gt;" style="text;html=1;align=center;verticalAlign=middle;resizable=0;points=[];autosize=1;strokeColor=none;fillColor=none;" vertex="1" parent="PA6u_Vdks4HZoJfBhmhb-87">
          <mxGeometry x="-103.31999999999998" y="96" width="310" height="30" as="geometry" />
        </mxCell>
        <mxCell id="PA6u_Vdks4HZoJfBhmhb-91" value="" style="aspect=fixed;sketch=0;html=1;dashed=0;whitespace=wrap;fillColor=#2875E2;strokeColor=#ffffff;points=[[0.005,0.63,0],[0.1,0.2,0],[0.9,0.2,0],[0.5,0,0],[0.995,0.63,0],[0.72,0.99,0],[0.5,1,0],[0.28,0.99,0]];shape=mxgraph.kubernetes.icon2;kubernetesLabel=1;prIcon=pod" vertex="1" parent="PA6u_Vdks4HZoJfBhmhb-87">
          <mxGeometry x="157.25" y="184" width="70.83" height="68" as="geometry" />
        </mxCell>
        <mxCell id="PA6u_Vdks4HZoJfBhmhb-92" style="edgeStyle=orthogonalEdgeStyle;rounded=0;orthogonalLoop=1;jettySize=auto;html=1;entryX=0.5;entryY=0;entryDx=0;entryDy=0;entryPerimeter=0;" edge="1" parent="PA6u_Vdks4HZoJfBhmhb-87" source="PA6u_Vdks4HZoJfBhmhb-90" target="PA6u_Vdks4HZoJfBhmhb-88">
          <mxGeometry relative="1" as="geometry" />
        </mxCell>
        <mxCell id="PA6u_Vdks4HZoJfBhmhb-93" style="edgeStyle=orthogonalEdgeStyle;rounded=0;orthogonalLoop=1;jettySize=auto;html=1;entryX=0.5;entryY=0;entryDx=0;entryDy=0;entryPerimeter=0;" edge="1" parent="PA6u_Vdks4HZoJfBhmhb-87" source="PA6u_Vdks4HZoJfBhmhb-90" target="PA6u_Vdks4HZoJfBhmhb-91">
          <mxGeometry relative="1" as="geometry" />
        </mxCell>
        <mxCell id="PA6u_Vdks4HZoJfBhmhb-94" style="rounded=0;orthogonalLoop=1;jettySize=auto;html=1;" edge="1" parent="1" source="PA6u_Vdks4HZoJfBhmhb-86" target="PA6u_Vdks4HZoJfBhmhb-89">
          <mxGeometry relative="1" as="geometry" />
        </mxCell>
        <mxCell id="PA6u_Vdks4HZoJfBhmhb-96" value="" style="group" vertex="1" connectable="0" parent="1">
          <mxGeometry x="2570" y="990" width="120" height="120" as="geometry" />
        </mxCell>
        <mxCell id="PA6u_Vdks4HZoJfBhmhb-97" value="" style="aspect=fixed;sketch=0;html=1;dashed=0;whitespace=wrap;fillColor=#2875E2;strokeColor=#ffffff;points=[[0.005,0.63,0],[0.1,0.2,0],[0.9,0.2,0],[0.5,0,0],[0.995,0.63,0],[0.72,0.99,0],[0.5,1,0],[0.28,0.99,0]];shape=mxgraph.kubernetes.icon2;kubernetesLabel=1;prIcon=ing" vertex="1" parent="PA6u_Vdks4HZoJfBhmhb-96">
          <mxGeometry x="-36.46" width="72.91" height="70" as="geometry" />
        </mxCell>
        <mxCell id="PA6u_Vdks4HZoJfBhmhb-50" value="" style="group" vertex="1" connectable="0" parent="1">
          <mxGeometry x="2437.5" y="1800" width="250" height="238" as="geometry" />
        </mxCell>
        <mxCell id="PA6u_Vdks4HZoJfBhmhb-49" value="" style="aspect=fixed;sketch=0;html=1;dashed=0;whitespace=wrap;fillColor=#2875E2;strokeColor=#ffffff;points=[[0.005,0.63,0],[0.1,0.2,0],[0.9,0.2,0],[0.5,0,0],[0.995,0.63,0],[0.72,0.99,0],[0.5,1,0],[0.28,0.99,0]];shape=mxgraph.kubernetes.icon2;kubernetesLabel=1;prIcon=pod" vertex="1" parent="PA6u_Vdks4HZoJfBhmhb-50">
          <mxGeometry x="79.59000000000003" y="222" width="70.83" height="68" as="geometry" />
        </mxCell>
        <mxCell id="PA6u_Vdks4HZoJfBhmhb-51" value="" style="aspect=fixed;sketch=0;html=1;dashed=0;whitespace=wrap;fillColor=#2875E2;strokeColor=#ffffff;points=[[0.005,0.63,0],[0.1,0.2,0],[0.9,0.2,0],[0.5,0,0],[0.995,0.63,0],[0.72,0.99,0],[0.5,1,0],[0.28,0.99,0]];shape=mxgraph.kubernetes.icon2;prIcon=svc" vertex="1" parent="PA6u_Vdks4HZoJfBhmhb-50">
          <mxGeometry x="78.53999999999996" y="70" width="72.92" height="70" as="geometry" />
        </mxCell>
        <mxCell id="PA6u_Vdks4HZoJfBhmhb-52" value="&lt;div style=&quot;background-color: rgb(255, 255, 254); line-height: 18px;&quot;&gt;&lt;font face=&quot;Menlo, Monaco, Courier New, monospace&quot; color=&quot;#0451a5&quot;&gt;&lt;span style=&quot;white-space-collapse: preserve;&quot;&gt;ntub-secumanage-minio-service&lt;/span&gt;&lt;/font&gt;&lt;br&gt;&lt;/div&gt;" style="text;html=1;align=center;verticalAlign=middle;resizable=0;points=[];autosize=1;strokeColor=none;fillColor=none;" vertex="1" parent="PA6u_Vdks4HZoJfBhmhb-50">
          <mxGeometry y="140" width="230" height="30" as="geometry" />
        </mxCell>
        <mxCell id="PA6u_Vdks4HZoJfBhmhb-54" style="edgeStyle=orthogonalEdgeStyle;rounded=0;orthogonalLoop=1;jettySize=auto;html=1;entryX=0.5;entryY=0;entryDx=0;entryDy=0;entryPerimeter=0;" edge="1" parent="PA6u_Vdks4HZoJfBhmhb-50" source="PA6u_Vdks4HZoJfBhmhb-52" target="PA6u_Vdks4HZoJfBhmhb-49">
          <mxGeometry relative="1" as="geometry" />
        </mxCell>
        <mxCell id="PA6u_Vdks4HZoJfBhmhb-95" value="" style="group" vertex="1" connectable="0" parent="1">
          <mxGeometry x="2497.5" y="1610" width="155" height="120" as="geometry" />
        </mxCell>
        <mxCell id="PA6u_Vdks4HZoJfBhmhb-45" value="&lt;div style=&quot;background-color: rgb(255, 255, 254); font-family: Menlo, Monaco, &amp;quot;Courier New&amp;quot;, monospace; line-height: 18px; white-space-collapse: preserve;&quot;&gt;&lt;br&gt;&lt;/div&gt;" style="text;html=1;align=center;verticalAlign=middle;resizable=0;points=[];autosize=1;strokeColor=none;fillColor=none;" vertex="1" parent="PA6u_Vdks4HZoJfBhmhb-95">
          <mxGeometry x="50" y="80" width="20" height="30" as="geometry" />
        </mxCell>
        <mxCell id="OBrosOqHSB_QmreXcXmK-5" value="" style="group" vertex="1" connectable="0" parent="PA6u_Vdks4HZoJfBhmhb-95">
          <mxGeometry x="-35" width="190" height="110" as="geometry" />
        </mxCell>
        <mxCell id="PA6u_Vdks4HZoJfBhmhb-44" value="" style="aspect=fixed;sketch=0;html=1;dashed=0;whitespace=wrap;fillColor=#2875E2;strokeColor=#ffffff;points=[[0.005,0.63,0],[0.1,0.2,0],[0.9,0.2,0],[0.5,0,0],[0.995,0.63,0],[0.72,0.99,0],[0.5,1,0],[0.28,0.99,0]];shape=mxgraph.kubernetes.icon2;kubernetesLabel=1;prIcon=ing" vertex="1" parent="OBrosOqHSB_QmreXcXmK-5">
          <mxGeometry x="58.54" width="72.91" height="70" as="geometry" />
        </mxCell>
        <mxCell id="OBrosOqHSB_QmreXcXmK-3" value="ntub-secumanage-minio-ingress" style="text;html=1;align=center;verticalAlign=middle;resizable=0;points=[];autosize=1;strokeColor=none;fillColor=none;" vertex="1" parent="OBrosOqHSB_QmreXcXmK-5">
          <mxGeometry y="80" width="190" height="30" as="geometry" />
        </mxCell>
        <mxCell id="PA6u_Vdks4HZoJfBhmhb-101" style="edgeStyle=orthogonalEdgeStyle;rounded=0;orthogonalLoop=1;jettySize=auto;html=1;entryX=0.5;entryY=0;entryDx=0;entryDy=0;entryPerimeter=0;" edge="1" parent="1" source="PA6u_Vdks4HZoJfBhmhb-46" target="PA6u_Vdks4HZoJfBhmhb-51">
          <mxGeometry relative="1" as="geometry" />
        </mxCell>
        <mxCell id="PA6u_Vdks4HZoJfBhmhb-102" style="edgeStyle=orthogonalEdgeStyle;rounded=0;orthogonalLoop=1;jettySize=auto;html=1;entryX=0.5;entryY=0;entryDx=0;entryDy=0;entryPerimeter=0;" edge="1" parent="1" source="PA6u_Vdks4HZoJfBhmhb-100" target="PA6u_Vdks4HZoJfBhmhb-51">
          <mxGeometry relative="1" as="geometry" />
        </mxCell>
        <mxCell id="PA6u_Vdks4HZoJfBhmhb-107" style="edgeStyle=orthogonalEdgeStyle;rounded=0;orthogonalLoop=1;jettySize=auto;html=1;" edge="1" parent="1" source="PA6u_Vdks4HZoJfBhmhb-103" target="PA6u_Vdks4HZoJfBhmhb-104">
          <mxGeometry relative="1" as="geometry" />
        </mxCell>
        <mxCell id="PA6u_Vdks4HZoJfBhmhb-103" value="" style="aspect=fixed;sketch=0;html=1;dashed=0;whitespace=wrap;fillColor=#2875E2;strokeColor=#ffffff;points=[[0.005,0.63,0],[0.1,0.2,0],[0.9,0.2,0],[0.5,0,0],[0.995,0.63,0],[0.72,0.99,0],[0.5,1,0],[0.28,0.99,0]];shape=mxgraph.kubernetes.icon2;kubernetesLabel=1;prIcon=deploy" vertex="1" parent="1">
          <mxGeometry x="1957.5" y="800" width="75" height="72" as="geometry" />
        </mxCell>
        <mxCell id="PA6u_Vdks4HZoJfBhmhb-112" style="edgeStyle=orthogonalEdgeStyle;rounded=0;orthogonalLoop=1;jettySize=auto;html=1;entryX=0.005;entryY=0.63;entryDx=0;entryDy=0;entryPerimeter=0;" edge="1" parent="1" source="PA6u_Vdks4HZoJfBhmhb-104" target="PA6u_Vdks4HZoJfBhmhb-25">
          <mxGeometry relative="1" as="geometry" />
        </mxCell>
        <mxCell id="PA6u_Vdks4HZoJfBhmhb-114" value="" style="group" vertex="1" connectable="0" parent="1">
          <mxGeometry x="2104.58" y="800" width="72.92000000000002" height="105" as="geometry" />
        </mxCell>
        <mxCell id="PA6u_Vdks4HZoJfBhmhb-104" value="" style="aspect=fixed;sketch=0;html=1;dashed=0;whitespace=wrap;fillColor=#2875E2;strokeColor=#ffffff;points=[[0.005,0.63,0],[0.1,0.2,0],[0.9,0.2,0],[0.5,0,0],[0.995,0.63,0],[0.72,0.99,0],[0.5,1,0],[0.28,0.99,0]];shape=mxgraph.kubernetes.icon2;kubernetesLabel=1;prIcon=rs" vertex="1" parent="PA6u_Vdks4HZoJfBhmhb-114">
          <mxGeometry width="72.92" height="70" as="geometry" />
        </mxCell>
        <mxCell id="PA6u_Vdks4HZoJfBhmhb-115" style="edgeStyle=orthogonalEdgeStyle;rounded=0;orthogonalLoop=1;jettySize=auto;html=1;entryX=0.5;entryY=1;entryDx=0;entryDy=0;entryPerimeter=0;" edge="1" parent="1" source="PA6u_Vdks4HZoJfBhmhb-104" target="PA6u_Vdks4HZoJfBhmhb-29">
          <mxGeometry relative="1" as="geometry">
            <Array as="points">
              <mxPoint x="2207.5" y="835" />
              <mxPoint x="2207.5" y="890" />
              <mxPoint x="2454.5" y="890" />
            </Array>
          </mxGeometry>
        </mxCell>
        <mxCell id="PA6u_Vdks4HZoJfBhmhb-116" style="edgeStyle=orthogonalEdgeStyle;rounded=0;orthogonalLoop=1;jettySize=auto;html=1;" edge="1" parent="1" source="PA6u_Vdks4HZoJfBhmhb-117" target="PA6u_Vdks4HZoJfBhmhb-119">
          <mxGeometry relative="1" as="geometry" />
        </mxCell>
        <mxCell id="PA6u_Vdks4HZoJfBhmhb-118" value="" style="group" vertex="1" connectable="0" parent="1">
          <mxGeometry x="2987.5" y="816.5" width="72.92000000000002" height="105" as="geometry" />
        </mxCell>
        <mxCell id="PA6u_Vdks4HZoJfBhmhb-119" value="" style="aspect=fixed;sketch=0;html=1;dashed=0;whitespace=wrap;fillColor=#2875E2;strokeColor=#ffffff;points=[[0.005,0.63,0],[0.1,0.2,0],[0.9,0.2,0],[0.5,0,0],[0.995,0.63,0],[0.72,0.99,0],[0.5,1,0],[0.28,0.99,0]];shape=mxgraph.kubernetes.icon2;kubernetesLabel=1;prIcon=rs" vertex="1" parent="PA6u_Vdks4HZoJfBhmhb-118">
          <mxGeometry width="72.92" height="70" as="geometry" />
        </mxCell>
        <mxCell id="PA6u_Vdks4HZoJfBhmhb-121" style="edgeStyle=orthogonalEdgeStyle;rounded=0;orthogonalLoop=1;jettySize=auto;html=1;entryX=0.995;entryY=0.63;entryDx=0;entryDy=0;entryPerimeter=0;" edge="1" parent="1" source="PA6u_Vdks4HZoJfBhmhb-119" target="PA6u_Vdks4HZoJfBhmhb-38">
          <mxGeometry relative="1" as="geometry">
            <Array as="points">
              <mxPoint x="2947.5" y="851" />
              <mxPoint x="2947.5" y="847" />
            </Array>
          </mxGeometry>
        </mxCell>
        <mxCell id="PA6u_Vdks4HZoJfBhmhb-122" style="edgeStyle=orthogonalEdgeStyle;rounded=0;orthogonalLoop=1;jettySize=auto;html=1;entryX=0.5;entryY=1;entryDx=0;entryDy=0;entryPerimeter=0;" edge="1" parent="1" source="PA6u_Vdks4HZoJfBhmhb-119" target="PA6u_Vdks4HZoJfBhmhb-34">
          <mxGeometry relative="1" as="geometry">
            <Array as="points">
              <mxPoint x="2947.5" y="851" />
              <mxPoint x="2947.5" y="892" />
              <mxPoint x="2682.5" y="892" />
            </Array>
          </mxGeometry>
        </mxCell>
        <mxCell id="PA6u_Vdks4HZoJfBhmhb-129" style="edgeStyle=orthogonalEdgeStyle;rounded=0;orthogonalLoop=1;jettySize=auto;html=1;" edge="1" parent="1" source="PA6u_Vdks4HZoJfBhmhb-130" target="PA6u_Vdks4HZoJfBhmhb-132">
          <mxGeometry relative="1" as="geometry" />
        </mxCell>
        <mxCell id="PA6u_Vdks4HZoJfBhmhb-131" value="" style="group" vertex="1" connectable="0" parent="1">
          <mxGeometry x="2364.58" y="2020" width="72.92000000000002" height="105" as="geometry" />
        </mxCell>
        <mxCell id="PA6u_Vdks4HZoJfBhmhb-132" value="" style="aspect=fixed;sketch=0;html=1;dashed=0;whitespace=wrap;fillColor=#2875E2;strokeColor=#ffffff;points=[[0.005,0.63,0],[0.1,0.2,0],[0.9,0.2,0],[0.5,0,0],[0.995,0.63,0],[0.72,0.99,0],[0.5,1,0],[0.28,0.99,0]];shape=mxgraph.kubernetes.icon2;kubernetesLabel=1;prIcon=rs" vertex="1" parent="PA6u_Vdks4HZoJfBhmhb-131">
          <mxGeometry width="72.92" height="70" as="geometry" />
        </mxCell>
        <mxCell id="PA6u_Vdks4HZoJfBhmhb-135" style="edgeStyle=orthogonalEdgeStyle;rounded=0;orthogonalLoop=1;jettySize=auto;html=1;entryX=0.006;entryY=0.5;entryDx=0;entryDy=0;entryPerimeter=0;" edge="1" parent="1" source="PA6u_Vdks4HZoJfBhmhb-132" target="PA6u_Vdks4HZoJfBhmhb-49">
          <mxGeometry relative="1" as="geometry" />
        </mxCell>
        <mxCell id="PA6u_Vdks4HZoJfBhmhb-138" value="" style="group" vertex="1" connectable="0" parent="1">
          <mxGeometry x="3507.5" y="620" width="77.46000000000001" height="105" as="geometry" />
        </mxCell>
        <mxCell id="PA6u_Vdks4HZoJfBhmhb-139" value="" style="aspect=fixed;sketch=0;html=1;dashed=0;whitespace=wrap;fillColor=#2875E2;strokeColor=#ffffff;points=[[0.005,0.63,0],[0.1,0.2,0],[0.9,0.2,0],[0.5,0,0],[0.995,0.63,0],[0.72,0.99,0],[0.5,1,0],[0.28,0.99,0]];shape=mxgraph.kubernetes.icon2;kubernetesLabel=1;prIcon=rs" vertex="1" parent="PA6u_Vdks4HZoJfBhmhb-138">
          <mxGeometry x="10.57" y="-10" width="72.92" height="70" as="geometry" />
        </mxCell>
        <mxCell id="PA6u_Vdks4HZoJfBhmhb-136" style="edgeStyle=orthogonalEdgeStyle;rounded=0;orthogonalLoop=1;jettySize=auto;html=1;" edge="1" parent="1" source="PA6u_Vdks4HZoJfBhmhb-137" target="PA6u_Vdks4HZoJfBhmhb-139">
          <mxGeometry relative="1" as="geometry" />
        </mxCell>
        <mxCell id="PA6u_Vdks4HZoJfBhmhb-141" style="edgeStyle=orthogonalEdgeStyle;rounded=0;orthogonalLoop=1;jettySize=auto;html=1;entryX=-0.001;entryY=0.511;entryDx=0;entryDy=0;entryPerimeter=0;" edge="1" parent="1" source="PA6u_Vdks4HZoJfBhmhb-139" target="PA6u_Vdks4HZoJfBhmhb-73">
          <mxGeometry relative="1" as="geometry" />
        </mxCell>
        <mxCell id="PA6u_Vdks4HZoJfBhmhb-142" style="edgeStyle=orthogonalEdgeStyle;rounded=0;orthogonalLoop=1;jettySize=auto;html=1;" edge="1" parent="1" source="PA6u_Vdks4HZoJfBhmhb-143" target="PA6u_Vdks4HZoJfBhmhb-145">
          <mxGeometry relative="1" as="geometry" />
        </mxCell>
        <mxCell id="PA6u_Vdks4HZoJfBhmhb-144" value="" style="group" vertex="1" connectable="0" parent="1">
          <mxGeometry x="2790" y="1370" width="72.92000000000002" height="105" as="geometry" />
        </mxCell>
        <mxCell id="PA6u_Vdks4HZoJfBhmhb-147" style="edgeStyle=orthogonalEdgeStyle;rounded=0;orthogonalLoop=1;jettySize=auto;html=1;" edge="1" parent="PA6u_Vdks4HZoJfBhmhb-144" source="PA6u_Vdks4HZoJfBhmhb-145">
          <mxGeometry relative="1" as="geometry">
            <mxPoint x="-50" y="35" as="targetPoint" />
          </mxGeometry>
        </mxCell>
        <mxCell id="PA6u_Vdks4HZoJfBhmhb-145" value="" style="aspect=fixed;sketch=0;html=1;dashed=0;whitespace=wrap;fillColor=#2875E2;strokeColor=#ffffff;points=[[0.005,0.63,0],[0.1,0.2,0],[0.9,0.2,0],[0.5,0,0],[0.995,0.63,0],[0.72,0.99,0],[0.5,1,0],[0.28,0.99,0]];shape=mxgraph.kubernetes.icon2;kubernetesLabel=1;prIcon=rs" vertex="1" parent="PA6u_Vdks4HZoJfBhmhb-144">
          <mxGeometry width="72.92" height="70" as="geometry" />
        </mxCell>
        <mxCell id="PA6u_Vdks4HZoJfBhmhb-148" style="edgeStyle=orthogonalEdgeStyle;rounded=0;orthogonalLoop=1;jettySize=auto;html=1;entryX=0.5;entryY=1;entryDx=0;entryDy=0;entryPerimeter=0;" edge="1" parent="1" source="PA6u_Vdks4HZoJfBhmhb-145" target="PA6u_Vdks4HZoJfBhmhb-88">
          <mxGeometry relative="1" as="geometry">
            <Array as="points">
              <mxPoint x="2760" y="1405" />
              <mxPoint x="2760" y="1462" />
              <mxPoint x="2565" y="1462" />
            </Array>
          </mxGeometry>
        </mxCell>
        <mxCell id="PA6u_Vdks4HZoJfBhmhb-149" value="" style="aspect=fixed;sketch=0;html=1;dashed=0;whitespace=wrap;fillColor=#2875E2;strokeColor=#ffffff;points=[[0.005,0.63,0],[0.1,0.2,0],[0.9,0.2,0],[0.5,0,0],[0.995,0.63,0],[0.72,0.99,0],[0.5,1,0],[0.28,0.99,0]];shape=mxgraph.kubernetes.icon2;kubernetesLabel=1;prIcon=pod" vertex="1" parent="1">
          <mxGeometry x="2389.17" y="1374" width="70.83" height="68" as="geometry" />
        </mxCell>
        <mxCell id="PA6u_Vdks4HZoJfBhmhb-150" value="" style="aspect=fixed;sketch=0;html=1;dashed=0;whitespace=wrap;fillColor=#2875E2;strokeColor=#ffffff;points=[[0.005,0.63,0],[0.1,0.2,0],[0.9,0.2,0],[0.5,0,0],[0.995,0.63,0],[0.72,0.99,0],[0.5,1,0],[0.28,0.99,0]];shape=mxgraph.kubernetes.icon2;kubernetesLabel=1;prIcon=rs" vertex="1" parent="1">
          <mxGeometry x="2248.4500000000003" y="1370" width="72.92" height="70" as="geometry" />
        </mxCell>
        <mxCell id="PA6u_Vdks4HZoJfBhmhb-152" style="edgeStyle=orthogonalEdgeStyle;rounded=0;orthogonalLoop=1;jettySize=auto;html=1;" edge="1" parent="1" source="PA6u_Vdks4HZoJfBhmhb-151" target="PA6u_Vdks4HZoJfBhmhb-150">
          <mxGeometry relative="1" as="geometry" />
        </mxCell>
        <mxCell id="PA6u_Vdks4HZoJfBhmhb-153" style="rounded=0;orthogonalLoop=1;jettySize=auto;html=1;entryX=-0.001;entryY=0.511;entryDx=0;entryDy=0;entryPerimeter=0;" edge="1" parent="1" source="PA6u_Vdks4HZoJfBhmhb-150" target="PA6u_Vdks4HZoJfBhmhb-149">
          <mxGeometry relative="1" as="geometry" />
        </mxCell>
        <mxCell id="PA6u_Vdks4HZoJfBhmhb-154" style="edgeStyle=orthogonalEdgeStyle;rounded=0;orthogonalLoop=1;jettySize=auto;html=1;entryX=0.5;entryY=0;entryDx=0;entryDy=0;entryPerimeter=0;" edge="1" parent="1" source="PA6u_Vdks4HZoJfBhmhb-90" target="PA6u_Vdks4HZoJfBhmhb-149">
          <mxGeometry relative="1" as="geometry" />
        </mxCell>
        <mxCell id="PA6u_Vdks4HZoJfBhmhb-156" value="" style="group" vertex="1" connectable="0" parent="1">
          <mxGeometry x="2912.5" y="1370" width="170" height="97.5" as="geometry" />
        </mxCell>
        <mxCell id="PA6u_Vdks4HZoJfBhmhb-143" value="" style="aspect=fixed;sketch=0;html=1;dashed=0;whitespace=wrap;fillColor=#2875E2;strokeColor=#ffffff;points=[[0.005,0.63,0],[0.1,0.2,0],[0.9,0.2,0],[0.5,0,0],[0.995,0.63,0],[0.72,0.99,0],[0.5,1,0],[0.28,0.99,0]];shape=mxgraph.kubernetes.icon2;kubernetesLabel=1;prIcon=deploy" vertex="1" parent="PA6u_Vdks4HZoJfBhmhb-156">
          <mxGeometry x="47.5" width="75" height="72" as="geometry" />
        </mxCell>
        <mxCell id="PA6u_Vdks4HZoJfBhmhb-155" value="ntub-secumanage-rabbitmq" style="text;html=1;align=center;verticalAlign=middle;resizable=0;points=[];autosize=1;strokeColor=none;fillColor=none;" vertex="1" parent="PA6u_Vdks4HZoJfBhmhb-156">
          <mxGeometry y="67.5" width="170" height="30" as="geometry" />
        </mxCell>
        <mxCell id="PA6u_Vdks4HZoJfBhmhb-158" value="" style="group" vertex="1" connectable="0" parent="1">
          <mxGeometry x="2050" y="1370" width="210" height="105" as="geometry" />
        </mxCell>
        <mxCell id="PA6u_Vdks4HZoJfBhmhb-151" value="" style="aspect=fixed;sketch=0;html=1;dashed=0;whitespace=wrap;fillColor=#2875E2;strokeColor=#ffffff;points=[[0.005,0.63,0],[0.1,0.2,0],[0.9,0.2,0],[0.5,0,0],[0.995,0.63,0],[0.72,0.99,0],[0.5,1,0],[0.28,0.99,0]];shape=mxgraph.kubernetes.icon2;kubernetesLabel=1;prIcon=deploy" vertex="1" parent="PA6u_Vdks4HZoJfBhmhb-158">
          <mxGeometry x="67.88000000000011" width="75" height="72" as="geometry" />
        </mxCell>
        <mxCell id="PA6u_Vdks4HZoJfBhmhb-157" value="ntub-secumanage-rabbitmq-server" style="text;html=1;align=center;verticalAlign=middle;resizable=0;points=[];autosize=1;strokeColor=none;fillColor=none;" vertex="1" parent="PA6u_Vdks4HZoJfBhmhb-158">
          <mxGeometry y="75" width="210" height="30" as="geometry" />
        </mxCell>
        <mxCell id="PA6u_Vdks4HZoJfBhmhb-160" value="" style="group" vertex="1" connectable="0" parent="1">
          <mxGeometry x="3330" y="610" width="170" height="98" as="geometry" />
        </mxCell>
        <mxCell id="PA6u_Vdks4HZoJfBhmhb-137" value="" style="aspect=fixed;sketch=0;html=1;dashed=0;whitespace=wrap;fillColor=#2875E2;strokeColor=#ffffff;points=[[0.005,0.63,0],[0.1,0.2,0],[0.9,0.2,0],[0.5,0,0],[0.995,0.63,0],[0.72,0.99,0],[0.5,1,0],[0.28,0.99,0]];shape=mxgraph.kubernetes.icon2;kubernetesLabel=1;prIcon=deploy" vertex="1" parent="PA6u_Vdks4HZoJfBhmhb-160">
          <mxGeometry x="47.5" width="75" height="72" as="geometry" />
        </mxCell>
        <mxCell id="PA6u_Vdks4HZoJfBhmhb-159" value="ntub-secumanage-postgres" style="text;html=1;align=center;verticalAlign=middle;resizable=0;points=[];autosize=1;strokeColor=none;fillColor=none;" vertex="1" parent="PA6u_Vdks4HZoJfBhmhb-160">
          <mxGeometry y="68" width="170" height="30" as="geometry" />
        </mxCell>
        <mxCell id="PA6u_Vdks4HZoJfBhmhb-162" value="" style="group" vertex="1" connectable="0" parent="1">
          <mxGeometry x="2180" y="2020" width="150" height="102" as="geometry" />
        </mxCell>
        <mxCell id="PA6u_Vdks4HZoJfBhmhb-130" value="" style="aspect=fixed;sketch=0;html=1;dashed=0;whitespace=wrap;fillColor=#2875E2;strokeColor=#ffffff;points=[[0.005,0.63,0],[0.1,0.2,0],[0.9,0.2,0],[0.5,0,0],[0.995,0.63,0],[0.72,0.99,0],[0.5,1,0],[0.28,0.99,0]];shape=mxgraph.kubernetes.icon2;kubernetesLabel=1;prIcon=deploy" vertex="1" parent="PA6u_Vdks4HZoJfBhmhb-162">
          <mxGeometry x="37.5" width="75" height="72" as="geometry" />
        </mxCell>
        <mxCell id="PA6u_Vdks4HZoJfBhmhb-161" value="ntub-secumanage-minio" style="text;html=1;align=center;verticalAlign=middle;resizable=0;points=[];autosize=1;strokeColor=none;fillColor=none;" vertex="1" parent="PA6u_Vdks4HZoJfBhmhb-162">
          <mxGeometry y="72" width="150" height="30" as="geometry" />
        </mxCell>
        <mxCell id="PA6u_Vdks4HZoJfBhmhb-163" value="ntub-secumanage-frontend" style="text;html=1;align=center;verticalAlign=middle;resizable=0;points=[];autosize=1;strokeColor=none;fillColor=none;" vertex="1" parent="1">
          <mxGeometry x="1910" y="872" width="170" height="30" as="geometry" />
        </mxCell>
        <mxCell id="PA6u_Vdks4HZoJfBhmhb-165" value="" style="group" vertex="1" connectable="0" parent="1">
          <mxGeometry x="3110" y="816.5" width="170" height="102" as="geometry" />
        </mxCell>
        <mxCell id="PA6u_Vdks4HZoJfBhmhb-117" value="" style="aspect=fixed;sketch=0;html=1;dashed=0;whitespace=wrap;fillColor=#2875E2;strokeColor=#ffffff;points=[[0.005,0.63,0],[0.1,0.2,0],[0.9,0.2,0],[0.5,0,0],[0.995,0.63,0],[0.72,0.99,0],[0.5,1,0],[0.28,0.99,0]];shape=mxgraph.kubernetes.icon2;kubernetesLabel=1;prIcon=deploy" vertex="1" parent="PA6u_Vdks4HZoJfBhmhb-165">
          <mxGeometry x="47.5" width="75" height="72" as="geometry" />
        </mxCell>
        <mxCell id="PA6u_Vdks4HZoJfBhmhb-164" value="ntub-secumanage-backend" style="text;html=1;align=center;verticalAlign=middle;resizable=0;points=[];autosize=1;strokeColor=none;fillColor=none;" vertex="1" parent="PA6u_Vdks4HZoJfBhmhb-165">
          <mxGeometry y="72" width="170" height="30" as="geometry" />
        </mxCell>
        <mxCell id="PA6u_Vdks4HZoJfBhmhb-166" value="8000 port" style="text;html=1;align=center;verticalAlign=middle;resizable=0;points=[];autosize=1;strokeColor=none;fillColor=none;" vertex="1" parent="1">
          <mxGeometry x="2827.5" y="888.5" width="70" height="30" as="geometry" />
        </mxCell>
        <mxCell id="PA6u_Vdks4HZoJfBhmhb-168" value="8000 port" style="text;html=1;align=center;verticalAlign=middle;resizable=0;points=[];autosize=1;strokeColor=none;fillColor=none;" vertex="1" parent="1">
          <mxGeometry x="2647.5" y="890" width="70" height="30" as="geometry" />
        </mxCell>
        <mxCell id="PA6u_Vdks4HZoJfBhmhb-171" value="" style="group" vertex="1" connectable="0" parent="1">
          <mxGeometry x="2419.42" y="802" width="70.83000000000004" height="119.5" as="geometry" />
        </mxCell>
        <mxCell id="PA6u_Vdks4HZoJfBhmhb-29" value="" style="aspect=fixed;sketch=0;html=1;dashed=0;whitespace=wrap;fillColor=#2875E2;strokeColor=#ffffff;points=[[0.005,0.63,0],[0.1,0.2,0],[0.9,0.2,0],[0.5,0,0],[0.995,0.63,0],[0.72,0.99,0],[0.5,1,0],[0.28,0.99,0]];shape=mxgraph.kubernetes.icon2;kubernetesLabel=1;prIcon=pod" vertex="1" parent="PA6u_Vdks4HZoJfBhmhb-171">
          <mxGeometry width="70.83" height="68" as="geometry" />
        </mxCell>
        <mxCell id="PA6u_Vdks4HZoJfBhmhb-169" value="80 port" style="text;html=1;align=center;verticalAlign=middle;resizable=0;points=[];autosize=1;strokeColor=none;fillColor=none;" vertex="1" parent="PA6u_Vdks4HZoJfBhmhb-171">
          <mxGeometry x="5.000000000000114" y="89.5" width="60" height="30" as="geometry" />
        </mxCell>
        <mxCell id="PA6u_Vdks4HZoJfBhmhb-172" value="" style="group" vertex="1" connectable="0" parent="1">
          <mxGeometry x="2237.5" y="802" width="70.83000000000004" height="119.5" as="geometry" />
        </mxCell>
        <mxCell id="PA6u_Vdks4HZoJfBhmhb-25" value="" style="aspect=fixed;sketch=0;html=1;dashed=0;whitespace=wrap;fillColor=#2875E2;strokeColor=#ffffff;points=[[0.005,0.63,0],[0.1,0.2,0],[0.9,0.2,0],[0.5,0,0],[0.995,0.63,0],[0.72,0.99,0],[0.5,1,0],[0.28,0.99,0]];shape=mxgraph.kubernetes.icon2;kubernetesLabel=1;prIcon=pod" vertex="1" parent="PA6u_Vdks4HZoJfBhmhb-172">
          <mxGeometry width="70.83" height="68" as="geometry" />
        </mxCell>
        <mxCell id="PA6u_Vdks4HZoJfBhmhb-170" value="80 port" style="text;html=1;align=center;verticalAlign=middle;resizable=0;points=[];autosize=1;strokeColor=none;fillColor=none;" vertex="1" parent="PA6u_Vdks4HZoJfBhmhb-172">
          <mxGeometry x="5" y="89.5" width="60" height="30" as="geometry" />
        </mxCell>
        <mxCell id="PA6u_Vdks4HZoJfBhmhb-177" value="9000 port&lt;div&gt;9001 port&lt;/div&gt;" style="text;html=1;align=center;verticalAlign=middle;resizable=0;points=[];autosize=1;strokeColor=none;fillColor=none;" vertex="1" parent="1">
          <mxGeometry x="2522.5" y="2095" width="70" height="40" as="geometry" />
        </mxCell>
        <mxCell id="PA6u_Vdks4HZoJfBhmhb-178" value="&lt;div&gt;15672 port&lt;/div&gt;" style="text;html=1;align=center;verticalAlign=middle;resizable=0;points=[];autosize=1;strokeColor=none;fillColor=none;" vertex="1" parent="1">
          <mxGeometry x="2384.17" y="1455" width="80" height="30" as="geometry" />
        </mxCell>
        <mxCell id="PA6u_Vdks4HZoJfBhmhb-180" value="" style="group" vertex="1" connectable="0" parent="1">
          <mxGeometry x="3648.79" y="610" width="72.92000000000007" height="98" as="geometry" />
        </mxCell>
        <mxCell id="PA6u_Vdks4HZoJfBhmhb-73" value="" style="aspect=fixed;sketch=0;html=1;dashed=0;whitespace=wrap;fillColor=#2875E2;strokeColor=#ffffff;points=[[0.005,0.63,0],[0.1,0.2,0],[0.9,0.2,0],[0.5,0,0],[0.995,0.63,0],[0.72,0.99,0],[0.5,1,0],[0.28,0.99,0]];shape=mxgraph.kubernetes.icon2;kubernetesLabel=1;prIcon=pod" vertex="1" parent="PA6u_Vdks4HZoJfBhmhb-180">
          <mxGeometry width="70.83" height="68" as="geometry" />
        </mxCell>
        <mxCell id="PA6u_Vdks4HZoJfBhmhb-179" value="5432 port" style="text;html=1;align=center;verticalAlign=middle;resizable=0;points=[];autosize=1;strokeColor=none;fillColor=none;" vertex="1" parent="PA6u_Vdks4HZoJfBhmhb-180">
          <mxGeometry x="2.9200000000000728" y="68" width="70" height="30" as="geometry" />
        </mxCell>
        <mxCell id="PA6u_Vdks4HZoJfBhmhb-182" value="" style="aspect=fixed;sketch=0;html=1;dashed=0;whitespace=wrap;fillColor=#2875E2;strokeColor=#ffffff;points=[[0.005,0.63,0],[0.1,0.2,0],[0.9,0.2,0],[0.5,0,0],[0.995,0.63,0],[0.72,0.99,0],[0.5,1,0],[0.28,0.99,0]];shape=mxgraph.kubernetes.icon2;kubernetesLabel=1;prIcon=secret" vertex="1" parent="1">
          <mxGeometry x="3579" y="823" width="69.79" height="67" as="geometry" />
        </mxCell>
        <mxCell id="OBrosOqHSB_QmreXcXmK-4" value="ntub-secumanage-rabbitmq-server-ingress" style="text;html=1;align=center;verticalAlign=middle;resizable=0;points=[];autosize=1;strokeColor=none;fillColor=none;" vertex="1" parent="1">
          <mxGeometry x="2445" y="1060" width="250" height="30" as="geometry" />
        </mxCell>
        <mxCell id="OBrosOqHSB_QmreXcXmK-6" value="" style="aspect=fixed;sketch=0;html=1;dashed=0;whitespace=wrap;fillColor=#2875E2;strokeColor=#ffffff;points=[[0.005,0.63,0],[0.1,0.2,0],[0.9,0.2,0],[0.5,0,0],[0.995,0.63,0],[0.72,0.99,0],[0.5,1,0],[0.28,0.99,0]];shape=mxgraph.kubernetes.icon2;kubernetesLabel=1;prIcon=pv" vertex="1" parent="1">
          <mxGeometry x="3380.1" y="469.99999999999994" width="70" height="67.2" as="geometry" />
        </mxCell>
        <mxCell id="OBrosOqHSB_QmreXcXmK-10" value="" style="group" vertex="1" connectable="0" parent="1">
          <mxGeometry x="3560" y="460" width="250" height="100" as="geometry" />
        </mxCell>
        <mxCell id="PA6u_Vdks4HZoJfBhmhb-74" value="" style="aspect=fixed;sketch=0;html=1;dashed=0;whitespace=wrap;fillColor=#2875E2;strokeColor=#ffffff;points=[[0.005,0.63,0],[0.1,0.2,0],[0.9,0.2,0],[0.5,0,0],[0.995,0.63,0],[0.72,0.99,0],[0.5,1,0],[0.28,0.99,0]];shape=mxgraph.kubernetes.icon2;prIcon=svc" vertex="1" parent="OBrosOqHSB_QmreXcXmK-10">
          <mxGeometry x="88.53999999999996" width="72.92" height="70" as="geometry" />
        </mxCell>
        <mxCell id="PA6u_Vdks4HZoJfBhmhb-75" value="&lt;div style=&quot;background-color: rgb(255, 255, 254); line-height: 18px;&quot;&gt;&lt;span style=&quot;color: rgb(4, 81, 165); font-family: Menlo, Monaco, &amp;quot;Courier New&amp;quot;, monospace; white-space-collapse: preserve;&quot;&gt;ntub-secumanage-postgres-service&lt;/span&gt;&lt;br&gt;&lt;/div&gt;" style="text;html=1;align=center;verticalAlign=middle;resizable=0;points=[];autosize=1;strokeColor=none;fillColor=none;" vertex="1" parent="OBrosOqHSB_QmreXcXmK-10">
          <mxGeometry y="70" width="250" height="30" as="geometry" />
        </mxCell>
        <mxCell id="OBrosOqHSB_QmreXcXmK-12" style="edgeStyle=orthogonalEdgeStyle;rounded=0;orthogonalLoop=1;jettySize=auto;html=1;" edge="1" parent="1" source="PA6u_Vdks4HZoJfBhmhb-137" target="OBrosOqHSB_QmreXcXmK-6">
          <mxGeometry relative="1" as="geometry" />
        </mxCell>
        <mxCell id="fBcCUHHDUbwVHa858ks5-1" value="" style="aspect=fixed;sketch=0;html=1;dashed=0;whitespace=wrap;verticalLabelPosition=bottom;verticalAlign=top;fillColor=#2875E2;strokeColor=#ffffff;points=[[0.005,0.63,0],[0.1,0.2,0],[0.9,0.2,0],[0.5,0,0],[0.995,0.63,0],[0.72,0.99,0],[0.5,1,0],[0.28,0.99,0]];shape=mxgraph.kubernetes.icon2;prIcon=c_role" vertex="1" parent="1">
          <mxGeometry x="3370" y="823.5" width="70.31" height="67.5" as="geometry" />
        </mxCell>
        <mxCell id="fBcCUHHDUbwVHa858ks5-2" style="edgeStyle=orthogonalEdgeStyle;rounded=0;orthogonalLoop=1;jettySize=auto;html=1;entryX=0.971;entryY=0.478;entryDx=0;entryDy=0;entryPerimeter=0;startArrow=block;startFill=1;" edge="1" parent="1" source="PA6u_Vdks4HZoJfBhmhb-182" target="fBcCUHHDUbwVHa858ks5-1">
          <mxGeometry relative="1" as="geometry" />
        </mxCell>
        <mxCell id="fBcCUHHDUbwVHa858ks5-8" value="sealed secret control" style="text;html=1;align=center;verticalAlign=middle;resizable=0;points=[];autosize=1;strokeColor=none;fillColor=none;" vertex="1" parent="1">
          <mxGeometry x="3340.15" y="888.5" width="130" height="30" as="geometry" />
        </mxCell>
        <mxCell id="fBcCUHHDUbwVHa858ks5-9" value="secret" style="text;html=1;align=center;verticalAlign=middle;resizable=0;points=[];autosize=1;strokeColor=none;fillColor=none;" vertex="1" parent="1">
          <mxGeometry x="3588.79" y="891" width="60" height="30" as="geometry" />
        </mxCell>
        <mxCell id="fBcCUHHDUbwVHa858ks5-10" value="encrypted" style="text;html=1;align=center;verticalAlign=middle;resizable=0;points=[];autosize=1;strokeColor=none;fillColor=none;" vertex="1" parent="1">
          <mxGeometry x="3470.15" y="823.5" width="80" height="30" as="geometry" />
        </mxCell>
        <mxCell id="fBcCUHHDUbwVHa858ks5-11" value="decrypted" style="text;html=1;align=center;verticalAlign=middle;resizable=0;points=[];autosize=1;strokeColor=none;fillColor=none;" vertex="1" parent="1">
          <mxGeometry x="3470.15" y="860" width="80" height="30" as="geometry" />
        </mxCell>
      </root>
    </mxGraphModel>
  </diagram>
</mxfile>
